<svg id="Capa_1" data-name="Capa 1" xmlns="http://www.w3.org/2000/svg" xmlns:xlink="http://www.w3.org/1999/xlink" viewBox="0 0 465.6 111.2"><defs><radialGradient id="Degradado_sin_nombre_8" cx="50.36" cy="57.87" r="15.33" gradientUnits="userSpaceOnUse"><stop offset="0" stop-color="#fff"/><stop offset="0.57" stop-color="#1e77bc"/></radialGradient></defs><path d="M167.91,60.83c9.91,0,15.26,3.7,15.26,11.13,0,8.33-5,13.32-17.45,13.32h-37.9l8.09-10.47h30.78c3,0,4.32-.85,4.32-3s-1.34-2.91-4.32-2.91H144.55c-10.46,0-15.27-4.69-15.27-11.68,0-7.67,5.11-12.65,17.46-12.65h35.34L174,55.17H145.77c-2.92,0-4.32.73-4.32,2.8s1.4,2.86,4.32,2.86Z" transform="translate(-2.4 -1.4)" style="fill:#03aeef"/><path d="M222.48,74.88H201.19v10.4H188.66V64.47h35c3.9,0,6.15-1.88,6.15-4.68s-2.25-4.62-6.15-4.62h-35L197,44.59h25.55c12.59,0,20,6.2,20,15.26S235.13,74.88,222.48,74.88Z" transform="translate(-2.4 -1.4)" style="fill:#03aeef"/><path d="M293,74.81l-8.15,10.47H248.88V44.59h12.6V74.81Z" transform="translate(-2.4 -1.4)" style="fill:#03aeef"/><path d="M340.55,44.59,316.4,71.83V85.28H303.75V71.77L278.94,44.59h16.18l9.73,11.31c1.28,1.46,4.68,5.17,5.53,6.38.79-1.15,2.19-2.91,5.11-6.44l9.25-11.25Z" transform="translate(-2.4 -1.4)" style="fill:#03aeef"/><path d="M395.36,44.59l-8.15,10.58H372.68V85.28H360.09V55.17H341l8.15-10.58Z" transform="translate(-2.4 -1.4)" style="fill:#03aeef"/><path d="M412,85.28H399.39V44.59H412Z" transform="translate(-2.4 -1.4)" style="fill:#03aeef"/><path d="M456,83.76,431.08,61.37V85.28H419.65V51.52c0-5.41,3.28-7.6,6.87-7.6a6.92,6.92,0,0,1,5.05,2.19l24.94,22.38V44.59H468V78.28c0,5.41-3.28,7.66-6.93,7.66A6.75,6.75,0,0,1,456,83.76Z" transform="translate(-2.4 -1.4)" style="fill:#03aeef"/><path d="M61.84.27" transform="translate(-2.4 -1.4)" style="fill:none;stroke:#a4e80f;stroke-miterlimit:10"/><ellipse cx="50.36" cy="57.87" rx="14.75" ry="15.89" style="fill:url(#Degradado_sin_nombre_8)"/><path d="M107.23,27.5" transform="translate(-2.4 -1.4)" style="fill:none;stroke:#a4e80f;stroke-miterlimit:10;stroke-width:0.5px"/><path d="M103.83,17.29" transform="translate(-2.4 -1.4)" style="fill:none;stroke:#a4e80f;stroke-miterlimit:10"/><path d="M100.43,21.83" transform="translate(-2.4 -1.4)" style="fill:none;stroke:#a4e80f;stroke-miterlimit:10;stroke-width:0.5px"/><path d="M103.83,1.4V20.69h-3.4c-1.94,0-3.84,0-5.68,0C54.17,21.17,34.84,32,34.61,32,14.48,43.22,23,68.73,23.25,69.48,2.83,61.54,7.37,38.85,7.37,38.85a31.32,31.32,0,0,1,6-13,49.58,49.58,0,0,1,9.23-9.19A47.45,47.45,0,0,1,38.93,8c1.72-.48,3.46-.88,5.21-1.25,3.62-.76,7.28-1.34,11-1.84,4-.55,8-1,12-1.38s8-.7,12-1c3.58-.25,7.16-.45,10.74-.63q4.19-.21,8.37-.36l4.87-.15Z" transform="translate(-2.4 -1.4)" style="fill:#03aeef"/><path d="M92.92,17" transform="translate(-2.4 -1.4)" style="fill:#f9f9f9;stroke:#a4e80f;stroke-miterlimit:10;stroke-width:0.5px"/><path d="M84.35,16.29" transform="translate(-2.4 -1.4)" style="fill:#f9f9f9;stroke:lime;stroke-miterlimit:10;stroke-width:0.5px"/><path d="M82.91,14.84" transform="translate(-2.4 -1.4)" style="fill:#f9f9f9;stroke:lime;stroke-miterlimit:10;stroke-width:0.5px"/><path d="M99.86,5.09V17H94.62a1.68,1.68,0,1,1,0-1.71h3.56V6.79H84.5a1.68,1.68,0,0,1-3.13-.86,1.69,1.69,0,0,1,3.15-.84Z" transform="translate(-2.4 -1.4)" style="fill:#f9f9f9"/><path d="M97.25,10.14a1.68,1.68,0,0,1-1.68,1.68,1.63,1.63,0,0,1-1.41-.77H86v5.11H79.13a1.69,1.69,0,0,1-1.42.77A1.67,1.67,0,0,1,76,15.3v-.06a1.68,1.68,0,0,1,3.16-.79h5.09V9.35h9.81a1.65,1.65,0,0,1,1.48-.89A1.68,1.68,0,0,1,97.25,10.14Z" transform="translate(-2.4 -1.4)" style="fill:#f9f9f9"/><path d="M-1,86.5" transform="translate(-2.4 -1.4)" style="fill:none;stroke:#a4e80f;stroke-miterlimit:10;stroke-width:0.5px"/><path d="M2.4,96.71" transform="translate(-2.4 -1.4)" style="fill:none;stroke:#a4e80f;stroke-miterlimit:10"/><path d="M5.81,92.17" transform="translate(-2.4 -1.4)" style="fill:none;stroke:#a4e80f;stroke-miterlimit:10;stroke-width:0.5px"/><path d="M2.4,112.6V93.31H5.81q2.91,0,5.67,0C52.06,92.83,71.4,82,71.63,82,91.76,70.78,83.23,45.27,83,44.53c20.41,7.94,15.87,30.62,15.87,30.62a31.4,31.4,0,0,1-6,13,49.94,49.94,0,0,1-9.24,9.19A47.53,47.53,0,0,1,67.3,106c-1.72.48-3.46.88-5.2,1.24-3.63.76-7.29,1.35-11,1.85-4,.55-8,1-12,1.37s-8,.7-12,1q-5.35.38-10.73.64-4.2.19-8.38.35c-1.62.06-3.25.11-4.87.15Z" transform="translate(-2.4 -1.4)" style="fill:#1e77bc"/><path d="M13.31,97" transform="translate(-2.4 -1.4)" style="fill:#f9f9f9;stroke:#a4e80f;stroke-miterlimit:10;stroke-width:0.5px"/><path d="M21.88,97.72" transform="translate(-2.4 -1.4)" style="fill:#f9f9f9;stroke:lime;stroke-miterlimit:10;stroke-width:0.5px"/><path d="M23.32,99.16" transform="translate(-2.4 -1.4)" style="fill:#f9f9f9;stroke:lime;stroke-miterlimit:10;stroke-width:0.5px"/><path d="M6.38,108.91V97h5.23a1.7,1.7,0,1,1,0,1.7H8.08v8.51H21.74a1.67,1.67,0,1,1,0,1.7Z" transform="translate(-2.4 -1.4)" style="fill:#f9f9f9"/><path d="M9,103.87a1.68,1.68,0,0,1,1.68-1.69,1.65,1.65,0,0,1,1.41.78h8.17V97.85h6.86a1.67,1.67,0,0,1,1.41-.78,1.69,1.69,0,0,1,1.69,1.63v.06a1.68,1.68,0,0,1-3.17.79H22v5.11h-9.8A1.68,1.68,0,0,1,9,103.87Z" transform="translate(-2.4 -1.4)" style="fill:#f9f9f9"/></svg>