<svg id="Capa_1" data-name="Capa 1" xmlns="http://www.w3.org/2000/svg" viewBox="0 0 94.02 94.02"><circle cx="47.01" cy="47.01" r="47.01" style="fill:#f9b862;opacity:0.33"/><polygon points="21.26 62.18 16.64 62.18 15.24 60.74 21.26 60.74 21.26 62.18" style="fill:#ef6c00"/><path d="M22.28,66.08v1.74h-4.5v3.43a.06.06,0,0,1-.05.06H16.14a.06.06,0,0,1-.05-.06V66.08Z" transform="translate(-1.02 -0.98)" style="fill:#ef6c00"/><polygon points="26.03 60.76 21.61 70.2 23.24 70.2 26.03 64.44 27.43 66.98 29.3 66.98 26.03 60.76" style="fill:#ff8500"/><polygon points="28.6 68.57 29.3 70.2 30.93 70.2 30.23 68.57 28.6 68.57" style="fill:#ff8500"/><polygon points="29.76 60.88 29.76 62.98 34.19 67.64 37.45 64.61 37.45 70.2 39.08 70.2 39.08 60.88 34.42 65.31 29.76 60.88" style="fill:#ef6c00"/><polygon points="43.39 60.76 43.39 62.86 47.82 67.52 51.08 64.49 51.08 70.08 52.71 70.08 52.71 60.76 48.05 65.19 43.39 60.76" style="fill:#ff8500"/><polygon points="40.48 60.88 40.48 69.97 42.11 68.57 42.11 62.28 40.48 60.88" style="fill:#ff8500"/><path d="M56.82,61.74v4.72c0,2,.82,2.91,2.24,2.91,1.58,0,2.37-.15,2.37-2.17h1.63c0,2.8-1.74,3.81-4,3.81s-3.82-1.07-3.82-3.89V61.74Z" transform="translate(-1.02 -0.98)" style="fill:#ef6c00"/><path d="M65.89,62.7A1.56,1.56,0,0,0,65,64.8c.39.8,1.09.93,2.47.79,1.69-.18,2.76.15,3.38,1.41s.25,3-1.73,4l-.37-1a1.91,1.91,0,0,0,1.15-2.47c-.4-.8-1.18-.93-2.53-.79-1.61.21-2.81-.07-3.41-1.28s-.06-2.89,1.57-3.73Z" transform="translate(-1.02 -0.98)" style="fill:#ff8500"/><polygon points="71.59 60.65 71.59 69.85 73.1 68.47 73.1 62.03 71.59 60.65" style="fill:#ef6c00"/><path d="M81.84,71A5.62,5.62,0,0,1,79.4,71c-2.49-.53-4-2.6-3.38-5.66s2.9-4.5,5.65-3.91a4.65,4.65,0,0,1,2,.87l-.49.92a4.14,4.14,0,0,0-1.7-.77c-2.08-.45-3.75.66-4.26,3.11-.48,2.28.46,4,2.61,4.48a6.1,6.1,0,0,0,.83.11Z" transform="translate(-1.02 -0.98)" style="fill:#ef6c00"/><polygon points="56.64 36.84 43.79 36.84 39.9 33.38 56.64 33.38 56.64 36.84" style="fill:#ef6c00"/><path d="M57.66,44.78v4.16H45.16v8.2a.14.14,0,0,1-.15.12H40.6a.14.14,0,0,1-.15-.12V44.78Z" transform="translate(-1.02 -0.98)" style="fill:#fd8301"/><path d="M58.35,39.93a.14.14,0,0,1,0,.06.14.14,0,0,0,0-.06Z" transform="translate(-1.02 -0.98)" style="fill:#393f40"/><path d="M65.12,47.12a1,1,0,0,1-.07.25h0A2.17,2.17,0,0,0,65.12,47.12Z" transform="translate(-1.02 -0.98)" style="fill:#393f40"/><path d="M65.12,47.12a1,1,0,0,1-.07.25h0A2.17,2.17,0,0,0,65.12,47.12Z" transform="translate(-1.02 -0.98)" style="fill:#393f40"/><path d="M65.91,32.84a1,1,0,0,1-1-1c0-8.21-7.17-14.89-16-14.89s-16,6.68-16,14.89a1,1,0,0,1-2.08,0c0-9.28,8.1-16.83,18.05-16.83s18,7.55,18,16.83A1,1,0,0,1,65.91,32.84Z" transform="translate(-1.02 -0.98)" style="fill:#f2af63"/><path d="M65.74,31.82c0-8.66-7.56-15.7-16.85-15.7s-16.84,7-16.84,15.7a1,1,0,0,1-.63.92,1.05,1.05,0,0,0,1.5-.87c0-8.21,7.16-14.89,16-14.89s16,6.68,16,14.89a1,1,0,0,0,1,1,1,1,0,0,0,.45-.1A1,1,0,0,1,65.74,31.82Z" transform="translate(-1.02 -0.98)" style="fill:#ed6c00"/><path d="M40.19,22.17a1.59,1.59,0,0,1-1.14-.46,1.37,1.37,0,0,1,.08-2,15,15,0,0,1,18.62-.56,1.38,1.38,0,0,1,.22,2,1.62,1.62,0,0,1-2.17.2,11.69,11.69,0,0,0-14.56.44A1.6,1.6,0,0,1,40.19,22.17Z" transform="translate(-1.02 -0.98)" style="fill:#f2af63"/><path d="M56.7,21a13.16,13.16,0,0,0-16.35.49,1.83,1.83,0,0,1-1,.42,1.57,1.57,0,0,0,.87.25,1.6,1.6,0,0,0,1.05-.38,11.69,11.69,0,0,1,14.56-.44,1.62,1.62,0,0,0,1.93,0A1.76,1.76,0,0,1,56.7,21Z" transform="translate(-1.02 -0.98)" style="fill:#ed6c00"/><path d="M31.57,32.42a3,3,0,0,1,.15.94v8.4a3.41,3.41,0,0,1-2.42,3.18,3.24,3.24,0,0,1-.14-.94V35.6A3.42,3.42,0,0,1,31.57,32.42Z" transform="translate(-1.02 -0.98)" style="fill:#393f40"/><path d="M37.33,32.8V46.65A2.25,2.25,0,0,1,35,48.81a2.33,2.33,0,0,1-2.18-1.44h-.09A3.51,3.51,0,0,1,29.13,44V35.6a3.51,3.51,0,0,1,3.61-3.37h0A2.31,2.31,0,0,1,35,30.64a2.41,2.41,0,0,1,1.64.64A2.07,2.07,0,0,1,37.33,32.8Z" transform="translate(-1.02 -0.98)" style="fill:#fd8301;stroke:#fd8301;stroke-miterlimit:10;stroke-width:2px"/><path d="M37.32,48.81h0a.75.75,0,0,1-.77-.72V31.36a.75.75,0,0,1,.77-.72h0a.75.75,0,0,1,.77.72V48.09A.75.75,0,0,1,37.32,48.81Z" transform="translate(-1.02 -0.98)" style="fill:#f2af63"/><path d="M37.33,30.64a.7.7,0,0,1,.09.35V47.71a.74.74,0,0,1-.77.72h0a.8.8,0,0,0,.68.38.75.75,0,0,0,.77-.72V31.36A.75.75,0,0,0,37.33,30.64Z" transform="translate(-1.02 -0.98)" style="fill:#ed6c00"/><path d="M63.69,30.79l-.32-.1Z" transform="translate(-1.02 -0.98)" style="fill:#393f40"/><path d="M68.75,35.43a.76.76,0,0,1,0-.15,0,0,0,0,0,0,0,.78.78,0,0,0,0-.16.8.8,0,0,0,0-.15.13.13,0,0,0,0-.06l0-.1a3.22,3.22,0,0,0-.24-.61s0-.05,0-.08l-.06-.1a2.13,2.13,0,0,0-.16-.25l-.09-.11,0-.06a.76.76,0,0,0-.08-.11l0,0-.18-.19,0,0-.11-.1-.13-.1-.17-.13-.11-.07h0L67,32.72h0l-.11-.06-.18-.09-.07,0-.1,0-.1,0-.11,0a4,4,0,0,0-1.2-.19h0a2.25,2.25,0,0,0-.19-.45l-.12-.17-.06-.09-.07-.08-.07-.08-.07-.07-.08-.07-.09-.07h0L64.18,31,64.1,31a.39.39,0,0,0-.11-.06.31.31,0,0,0-.1-.05l-.1-.05-.1,0-.32-.1-.12,0h-.38a2.37,2.37,0,0,0-1.64.64,2.07,2.07,0,0,0-.68,1.52V46.58a2.28,2.28,0,0,0,2.11,2.22A2.36,2.36,0,0,0,65,47.57h0a.93.93,0,0,0,.05-.1l0-.1h0a2.17,2.17,0,0,0,.07-.24,1,1,0,0,1-.07.25h.09a3.6,3.6,0,0,0,3.47-2.43l.09-.34a.5.5,0,0,1,0-.12.68.68,0,0,1,0-.14c0-.05,0-.11,0-.17V35.43ZM64,47.18l.42.11Z" transform="translate(-1.02 -0.98)" style="fill:#fd8301;stroke:#fd8301;stroke-miterlimit:10;stroke-width:2px"/><path d="M60.59,48.81h0a.76.76,0,0,0,.78-.72V31.36a.76.76,0,0,0-.78-.72h0a.75.75,0,0,0-.77.72V48.09A.75.75,0,0,0,60.59,48.81Z" transform="translate(-1.02 -0.98)" style="fill:#f2af63"/><path d="M60.59,30.64a.71.71,0,0,0-.1.35V47.71a.75.75,0,0,0,.77.72h0a.8.8,0,0,1-.68.38.75.75,0,0,1-.77-.72V31.36A.76.76,0,0,1,60.59,30.64Z" transform="translate(-1.02 -0.98)" style="fill:#ed6c00"/><path d="M29.1,35.52v8.64a3.12,3.12,0,0,0,.15,1,3.49,3.49,0,0,0,2.38-3.27V33.22a3.38,3.38,0,0,0-.14-1A3.47,3.47,0,0,0,29.1,35.52Z" transform="translate(-1.02 -0.98)" style="fill:#ed6c00"/><path d="M35.23,31.56V45.41A2.24,2.24,0,0,1,33,47.56a2,2,0,0,1-.22-.91V32.8A2.25,2.25,0,0,1,35,30.64,1.93,1.93,0,0,1,35.23,31.56Z" transform="translate(-1.02 -0.98)" style="fill:#ed6c00"/><path d="M65.62,32.85V46.51a1.94,1.94,0,0,1-.23.9A2.27,2.27,0,0,1,63,45.29V31.62a1.85,1.85,0,0,1,.23-.9A2.28,2.28,0,0,1,65.62,32.85Z" transform="translate(-1.02 -0.98)" style="fill:#ed6c00"/><path d="M69,35.58v8.19a3.08,3.08,0,0,1-.13.91,3.29,3.29,0,0,1-2.19-3.09V33.4a3.45,3.45,0,0,1,.13-.91A3.29,3.29,0,0,1,69,35.58Z" transform="translate(-1.02 -0.98)" style="fill:#ed6c00"/><path d="M36.39,22.17a2.32,2.32,0,0,1-1.62-.65,2,2,0,0,1,.12-2.92,21.45,21.45,0,0,1,26.68-.79,2,2,0,0,1,.31,2.9,2.32,2.32,0,0,1-3.11.29,16.69,16.69,0,0,0-10.05-3.34,16.52,16.52,0,0,0-10.82,4A2.31,2.31,0,0,1,36.39,22.17Z" transform="translate(-1.02 -0.98)" style="fill:#f2af63"/><path d="M61.88,19.16a2.32,2.32,0,0,1-3.11.29,16.68,16.68,0,0,0-10.05-3.33,16.46,16.46,0,0,0-10.82,4A2.33,2.33,0,0,1,34.77,20a2,2,0,0,1-.43-.63,2,2,0,0,0,.43,2.18,2.35,2.35,0,0,0,3.13.1,16.52,16.52,0,0,1,10.82-4A16.69,16.69,0,0,1,58.77,21a2.32,2.32,0,0,0,3.11-.29,2,2,0,0,0,.34-2.08A1.77,1.77,0,0,1,61.88,19.16Z" transform="translate(-1.02 -0.98)" style="fill:#ed6c00"/></svg>