<svg xmlns="http://www.w3.org/2000/svg" viewBox="0 0 594 301.72"><g id="Sombrero"><path d="M273.25,139.55a15.51,15.51,0,0,1-5.28-5.28,13.54,13.54,0,0,1-2-7.16V93.49a13.58,13.58,0,0,1,2-7.17,15.48,15.48,0,0,1,5.28-5.27,13.55,13.55,0,0,1,7.16-2h48.92V91.87H280.84a2,2,0,0,0-2,2v32.75a2,2,0,0,0,.59,1.46,2,2,0,0,0,1.45.59h48.6v12.82h-49A13.54,13.54,0,0,1,273.25,139.55Z" transform="translate(-58.26 -13.24)" style="fill:#004aad"/><path d="M348.13,139.55a15.51,15.51,0,0,1-5.28-5.28,13.54,13.54,0,0,1-2-7.16V93.49a13.58,13.58,0,0,1,2-7.17,15.48,15.48,0,0,1,5.28-5.27,13.55,13.55,0,0,1,7.16-2h34.59A14.05,14.05,0,0,1,397.15,81a14.64,14.64,0,0,1,5.23,5.23,14.05,14.05,0,0,1,1.94,7.27v33.62a13.87,13.87,0,0,1-1.94,7.16,15.11,15.11,0,0,1-5.23,5.28,13.72,13.72,0,0,1-7.27,2H355.29A13.54,13.54,0,0,1,348.13,139.55Zm7.59-10.83h33.73a2,2,0,0,0,1.45-.59,2,2,0,0,0,.6-1.46V93.92a2,2,0,0,0-2.05-2H355.72a2,2,0,0,0-2,2v32.75a2,2,0,0,0,.59,1.46A2,2,0,0,0,355.72,128.72Z" transform="translate(-58.26 -13.24)" style="fill:#004aad"/><path d="M419.56,139.6a14.62,14.62,0,0,1-5.23-5.22,14.07,14.07,0,0,1-1.93-7.27V93.49a13.9,13.9,0,0,1,1.93-7.17,15.08,15.08,0,0,1,5.23-5.27,13.73,13.73,0,0,1,7.27-2h36.31V58.58H476v83H426.83A14,14,0,0,1,419.56,139.6Zm7.81-10.88H461.1a2,2,0,0,0,2-2V93.92a2,2,0,0,0-2-2H427.37a2,2,0,0,0-2.05,2v32.75a2,2,0,0,0,.6,1.46A2,2,0,0,0,427.37,128.72Z" transform="translate(-58.26 -13.24)" style="fill:#004aad"/><path d="M492.4,139.55a15.34,15.34,0,0,1-5.28-5.28,13.55,13.55,0,0,1-2-7.16V93.49a13.59,13.59,0,0,1,2-7.17,15.31,15.31,0,0,1,5.28-5.27,13.53,13.53,0,0,1,7.16-2h34.59A14.08,14.08,0,0,1,541.42,81a14.54,14.54,0,0,1,5.22,5.23,14,14,0,0,1,1.94,7.27v23.27H497.94v9.91a2,2,0,0,0,.6,1.46,2,2,0,0,0,1.45.59h48.59v12.82h-49A13.52,13.52,0,0,1,492.4,139.55ZM497.94,105h37.82V93.92a2,2,0,0,0-2-2H500a2,2,0,0,0-2.05,2Z" transform="translate(-58.26 -13.24)" style="fill:#004aad"/><path d="M70.78,290.29V227.8h78.65a13.72,13.72,0,0,1,7.27,2,15,15,0,0,1,5.23,5.28,13.87,13.87,0,0,1,1.94,7.16v48.06H151.05V242.66a2,2,0,0,0-.6-1.45,2,2,0,0,0-1.45-.59H125.84a1.86,1.86,0,0,0-1.35.59,2,2,0,0,0-.59,1.45v47.63h-13V242.66a2,2,0,0,0-.59-1.45,1.89,1.89,0,0,0-1.35-.59H85.65a1.86,1.86,0,0,0-1.35.59,2,2,0,0,0-.59,1.45v47.63Z" transform="translate(-58.26 -13.24)" style="fill:#004aad"/><path d="M190.37,290.29a13.73,13.73,0,0,1-7.27-2,15,15,0,0,1-5.23-5.28,13.86,13.86,0,0,1-1.93-7.16V252.58h50.63v-9.92a2,2,0,0,0-.59-1.45,2,2,0,0,0-1.45-.59H175.94V227.8h49a14,14,0,0,1,7.27,1.93,14.72,14.72,0,0,1,5.23,5.23,14.08,14.08,0,0,1,1.94,7.27v48.06Zm.43-12.83h35.77V264.32H188.76v11.1a2,2,0,0,0,2,2Z" transform="translate(-58.26 -13.24)" style="fill:#004aad"/><path d="M260.19,315V302h38a1.89,1.89,0,0,0,1.35-.59,2,2,0,0,0,.59-1.46v-9.69H264a13.8,13.8,0,0,1-7.22-1.94,15.19,15.19,0,0,1-5.22-5.23,13.73,13.73,0,0,1-2-7.27V242.23a13.55,13.55,0,0,1,2-7.16,15.39,15.39,0,0,1,5.27-5.28,13.55,13.55,0,0,1,7.17-2h34.69a13.78,13.78,0,0,1,7.28,2,14.61,14.61,0,0,1,5.17,5.28,14.21,14.21,0,0,1,1.88,7.16v58.29a14.4,14.4,0,0,1-1.88,7.27A14.19,14.19,0,0,1,298.65,315Zm4.2-37.5h33.83a1.85,1.85,0,0,0,1.35-.59,2,2,0,0,0,.59-1.45V242.66a2,2,0,0,0-.59-1.45,1.89,1.89,0,0,0-1.35-.59H264.39a2,2,0,0,0-2.05,2v32.76a2,2,0,0,0,.6,1.45A1.93,1.93,0,0,0,264.39,277.46Z" transform="translate(-58.26 -13.24)" style="fill:#004aad"/><path d="M324.3,220.25V207.32h12.82v12.93Zm0,70V227.8h12.82v62.49Z" transform="translate(-58.26 -13.24)" style="fill:#004aad"/><path d="M353.44,288.29a15.42,15.42,0,0,1-5.28-5.28,13.54,13.54,0,0,1-2-7.16V242.23a13.54,13.54,0,0,1,2-7.16,15.51,15.51,0,0,1,5.28-5.28,13.54,13.54,0,0,1,7.16-2h48.92v12.82H361a2,2,0,0,0-1.45.59,2,2,0,0,0-.59,1.45v32.76a2,2,0,0,0,2,2h48.6v12.83h-49A13.55,13.55,0,0,1,353.44,288.29Z" transform="translate(-58.26 -13.24)" style="fill:#004aad"/><path d="M421.15,220.25V207.32H434v12.93Zm0,70V227.8H434v62.49Z" transform="translate(-58.26 -13.24)" style="fill:#004aad"/><path d="M455.42,290.29a13.77,13.77,0,0,1-7.28-2,14.92,14.92,0,0,1-5.22-5.28,13.87,13.87,0,0,1-1.94-7.16V252.58h50.64v-9.92a2,2,0,0,0-.59-1.45,2,2,0,0,0-1.46-.59H441V227.8h49a14,14,0,0,1,7.27,1.93A14.57,14.57,0,0,1,502.5,235a14.08,14.08,0,0,1,1.94,7.27v48.06Zm.43-12.83h35.77V264.32H453.8v11.1a2,2,0,0,0,2.05,2Z" transform="translate(-58.26 -13.24)" style="fill:#004aad"/><path d="M514.35,290.29V227.8h49.13a13.58,13.58,0,0,1,7.17,2,15,15,0,0,1,5.22,5.28,13.87,13.87,0,0,1,1.94,7.16v48.06H565V242.66a2,2,0,0,0-.59-1.45,1.89,1.89,0,0,0-1.35-.59H529.22a2,2,0,0,0-1.46.59,2,2,0,0,0-.59,1.45v47.63Z" transform="translate(-58.26 -13.24)" style="fill:#004aad"/><path d="M596,288.29a15.25,15.25,0,0,1-5.28-5.28,13.55,13.55,0,0,1-2-7.16V273.8h12.82v1.62a2,2,0,0,0,2,2h33.72a2,2,0,0,0,2.05-2v-8a1.86,1.86,0,0,0-.59-1.35,2,2,0,0,0-1.46-.59H603.13a13.5,13.5,0,0,1-7.16-2,15.25,15.25,0,0,1-5.28-5.28,13.55,13.55,0,0,1-2-7.16v-8.84a13.55,13.55,0,0,1,2-7.16,15.34,15.34,0,0,1,5.28-5.28,13.49,13.49,0,0,1,7.16-2h34.59a13.75,13.75,0,0,1,7.27,2,15.51,15.51,0,0,1,5.28,5.28,13.54,13.54,0,0,1,2,7.16v2.05H639.33v-1.62a2,2,0,0,0-.59-1.45,2,2,0,0,0-1.46-.59H603.56a2,2,0,0,0-1.45.59,2,2,0,0,0-.6,1.45v8a1.83,1.83,0,0,0,.6,1.34,2,2,0,0,0,1.45.6h34.16a13.75,13.75,0,0,1,7.27,2,15.51,15.51,0,0,1,5.28,5.28,13.54,13.54,0,0,1,2,7.16v8.84a13.54,13.54,0,0,1-2,7.16,15.42,15.42,0,0,1-5.28,5.28,13.76,13.76,0,0,1-7.27,2H603.13A13.5,13.5,0,0,1,596,288.29Z" transform="translate(-58.26 -13.24)" style="fill:#004aad"/><path d="M81.65,193.18a3.84,3.84,0,0,1,.24-1.37Z" transform="translate(-58.26 -13.24)" style="fill:#b8c5d3"/><path d="M203.29,193.18l-.41-1.86A4.63,4.63,0,0,1,203.29,193.18Z" transform="translate(-58.26 -13.24)" style="fill:#b8c5d3"/><path d="M203.29,193.18c0,8.72-27.87,12.86-60.82,12.86s-60.82-4.14-60.82-12.86l.24-1.37L95.69,109h88.89l18.3,82.36Z" transform="translate(-58.26 -13.24)" style="fill:#004aad"/><circle cx="85.34" cy="139.96" r="33.92" style="fill:#0fe8f2"/><path d="M226.69,92c0,11.3-37.71,20.47-84.22,20.47S58.26,103.3,58.26,92c0-6.7,13.25-12.64,33.72-16.38-7.23,2.48-11.5,5.51-11.5,8.78,0,8.4,28,15.21,62.58,15.21s62.57-6.81,62.57-15.21c0-3.06-3.74-5.91-10.15-8.3C214.51,79.85,226.69,85.58,226.69,92Z" transform="translate(-58.26 -13.24)" style="fill:#004aad"/><text transform="translate(58.34 147.95) scale(1.12 1)" style="font-size:27.22344970703125px;stroke:#000;stroke-miterlimit:10;stroke-width:2px;font-family:MyriadPro-Regular, Myriad Pro;letter-spacing:0.07899791826035231em">&lt;/&gt;</text><ellipse cx="82.46" cy="68.82" rx="28.66" ry="4.68" style="fill:#5ce1e6"/><polygon points="109.76 19.95 93.36 24.52 89.81 39.39 86.35 24.22 70.37 19.44 86.71 16.04 90.32 0 93.72 16.34 109.76 19.95" style="fill:#5ce1e6"/><polygon points="134.37 42.05 125.72 44.46 123.85 52.31 122.03 44.3 113.59 41.78 122.21 39.99 124.12 31.53 125.91 40.15 134.37 42.05" style="fill:#5ce1e6"/><polygon points="126.24 25.62 121.44 26.96 120.4 31.31 119.39 26.87 114.7 25.47 119.49 24.47 120.55 19.77 121.54 24.56 126.24 25.62" style="fill:#5ce1e6"/><polygon points="114.48 53.75 105.84 56.16 103.96 64 102.14 56 93.71 53.48 102.33 51.69 104.23 43.23 106.03 51.84 114.48 53.75" style="fill:#5ce1e6"/><polygon points="91.09 60.77 82.45 63.18 80.57 71.02 78.75 63.02 70.32 60.5 78.94 58.7 80.84 50.24 82.63 58.86 91.09 60.77" style="fill:#5ce1e6"/></g></svg>