<svg id="Capa_1" data-name="Capa 1" xmlns="http://www.w3.org/2000/svg" xmlns:xlink="http://www.w3.org/1999/xlink" viewBox="0 0 1853.7 442.71"><defs><radialGradient id="Degradado_sin_nombre_8" cx="200.5" cy="230.42" r="61.03" gradientUnits="userSpaceOnUse"><stop offset="0" stop-color="#fff"/><stop offset="0.57" stop-color="#1e77bc"/></radialGradient></defs><path d="M699.23,259.11c39.47,0,60.78,14.76,60.78,44.31,0,33.18-20.1,53-69.5,53H539.65l32.2-41.65H694.38c11.87,0,17.2-3.39,17.2-11.86,0-8.24-5.33-11.63-17.2-11.63H606.24c-41.65,0-60.78-18.65-60.78-46.49,0-30.51,20.34-50.37,69.49-50.37h140.7l-32.21,42.14H611.08c-11.62,0-17.19,2.9-17.19,11.14s5.57,11.38,17.19,11.38Z" transform="translate(-40.3 -22.53)" style="fill:#03aeef"/><path d="M916.49,315.05H831.72v41.4H781.84V273.63H921.33c15.5,0,24.46-7.5,24.46-18.64,0-11.38-9-18.4-24.46-18.4H781.84L815,194.45H916.73c50.12,0,79.42,24.7,79.42,60.78C996.15,291.07,966.85,315.05,916.49,315.05Z" transform="translate(-40.3 -22.53)" style="fill:#03aeef"/><path d="M1197.19,314.8l-32.45,41.65H1021.63v-162h50.12V314.8Z" transform="translate(-40.3 -22.53)" style="fill:#03aeef"/><path d="M1386.58,194.45l-96.13,108.49v53.51h-50.37V302.7l-98.81-108.25h64.42l38.74,45c5.09,5.82,18.65,20.58,22,25.42,3.15-4.59,8.72-11.62,20.34-25.66l36.81-44.8Z" transform="translate(-40.3 -22.53)" style="fill:#03aeef"/><path d="M1604.81,194.45l-32.45,42.14h-57.87V356.45h-50.13V236.59h-76l32.45-42.14Z" transform="translate(-40.3 -22.53)" style="fill:#03aeef"/><path d="M1671,356.45h-50.13v-162H1671Z" transform="translate(-40.3 -22.53)" style="fill:#03aeef"/><path d="M1846.29,350.4,1747,261.28v95.17h-45.53V222.06c0-21.56,13.08-30.27,27.37-30.27,6.05,0,12.11,1.45,20.1,8.71l99.29,89.12V194.45H1894V328.6c0,21.55-13.08,30.51-27.6,30.51C1860.1,359.11,1854,357.66,1846.29,350.4Z" transform="translate(-40.3 -22.53)" style="fill:#03aeef"/><path d="M277,18" transform="translate(-40.3 -22.53)" style="fill:none;stroke:#a4e80f;stroke-miterlimit:10"/><ellipse cx="200.5" cy="230.42" rx="58.73" ry="63.25" style="fill:url(#Degradado_sin_nombre_8)"/><path d="M457.67,126.44" transform="translate(-40.3 -22.53)" style="fill:none;stroke:#a4e80f;stroke-miterlimit:10;stroke-width:0.5px"/><path d="M444.11,85.78" transform="translate(-40.3 -22.53)" style="fill:none;stroke:#a4e80f;stroke-miterlimit:10"/><path d="M430.56,103.85" transform="translate(-40.3 -22.53)" style="fill:none;stroke:#a4e80f;stroke-miterlimit:10;stroke-width:0.5px"/><path d="M444.11,22.53v76.8H430.56q-11.6-.14-22.59,0c-161.56,1.9-238.55,45.18-239.45,45.18C88.37,189,122.3,290.58,123.29,293.56,42,261.93,60.09,171.62,60.09,171.62c3.54-18.87,12.28-36.36,23.79-51.61a197.47,197.47,0,0,1,36.75-36.6c19.74-15.35,40.91-27.84,65.11-34.63,6.84-1.91,13.76-3.5,20.71-5,14.44-3,29-5.35,43.63-7.35C266,34.29,282,32.52,298,31q23.77-2.26,47.6-3.86,21.38-1.45,42.76-2.51,16.67-.82,33.35-1.43,9.69-.35,19.38-.59Z" transform="translate(-40.3 -22.53)" style="fill:#03aeef"/><path d="M400.68,84.65" transform="translate(-40.3 -22.53)" style="fill:#f9f9f9;stroke:#a4e80f;stroke-miterlimit:10;stroke-width:0.5px"/><path d="M366.57,81.78" transform="translate(-40.3 -22.53)" style="fill:#f9f9f9;stroke:lime;stroke-miterlimit:10;stroke-width:0.5px"/><path d="M360.83,76" transform="translate(-40.3 -22.53)" style="fill:#f9f9f9;stroke:lime;stroke-miterlimit:10;stroke-width:0.5px"/><path d="M428.3,37.21V84.65H407.46a6.73,6.73,0,1,1-.1-6.78h14.16V44H367.14a6.69,6.69,0,1,1,.1-6.78Z" transform="translate(-40.3 -22.53)" style="fill:#f9f9f9"/><path d="M417.9,57.3A6.67,6.67,0,0,1,411.22,64a6.55,6.55,0,0,1-5.62-3.08H373.07V81.26H345.76a6.7,6.7,0,0,1-12.34-3.39v-.24A6.71,6.71,0,0,1,346,74.48h20.26V54.15h39a6.59,6.59,0,0,1,5.89-3.52A6.66,6.66,0,0,1,417.9,57.3Z" transform="translate(-40.3 -22.53)" style="fill:#f9f9f9"/><path d="M26.75,361.33" transform="translate(-40.3 -22.53)" style="fill:none;stroke:#a4e80f;stroke-miterlimit:10;stroke-width:0.5px"/><path d="M40.3,402" transform="translate(-40.3 -22.53)" style="fill:none;stroke:#a4e80f;stroke-miterlimit:10"/><path d="M53.86,383.92" transform="translate(-40.3 -22.53)" style="fill:none;stroke:#a4e80f;stroke-miterlimit:10;stroke-width:0.5px"/><path d="M40.3,465.24v-76.8H53.86c7.72.09,15.27.09,22.59,0C238,386.54,315,343.26,315.9,343.26c80.15-44.51,46.22-146.07,45.22-149,81.28,31.62,63.21,121.94,63.21,121.94-3.54,18.87-12.28,36.35-23.79,51.61a198.08,198.08,0,0,1-36.75,36.6c-19.74,15.35-40.91,27.84-65.11,34.62-6.84,1.92-13.76,3.51-20.71,5-14.44,3-29,5.35-43.63,7.35-15.92,2.18-31.9,3.95-47.89,5.47s-31.72,2.78-47.61,3.87q-21.36,1.46-42.75,2.51-16.66.83-33.35,1.42-9.69.35-19.38.6Z" transform="translate(-40.3 -22.53)" style="fill:#1e77bc"/><path d="M83.74,403.12" transform="translate(-40.3 -22.53)" style="fill:#f9f9f9;stroke:#a4e80f;stroke-miterlimit:10;stroke-width:0.5px"/><path d="M117.85,406" transform="translate(-40.3 -22.53)" style="fill:#f9f9f9;stroke:lime;stroke-miterlimit:10;stroke-width:0.5px"/><path d="M123.59,411.74" transform="translate(-40.3 -22.53)" style="fill:#f9f9f9;stroke:lime;stroke-miterlimit:10;stroke-width:0.5px"/><path d="M56.12,450.56V403.12H77a6.73,6.73,0,1,1,.1,6.78H62.89v33.88h54.39a6.69,6.69,0,1,1-.1,6.78Z" transform="translate(-40.3 -22.53)" style="fill:#f9f9f9"/><path d="M66.52,430.46a6.67,6.67,0,0,1,6.67-6.7,6.55,6.55,0,0,1,5.63,3.08h32.53V406.51h27.31A6.69,6.69,0,0,1,151,409.9v.23a6.7,6.7,0,0,1-12.6,3.15H118.13v20.34h-39a6.6,6.6,0,0,1-5.9,3.52A6.66,6.66,0,0,1,66.52,430.46Z" transform="translate(-40.3 -22.53)" style="fill:#f9f9f9"/></svg>