<svg xmlns="http://www.w3.org/2000/svg" viewBox="0 0 180 180"><g id="rectangulo_pequeño"><ellipse cx="90" cy="90" rx="87" ry="88" style="fill:#b1dff3"/><rect x="43.56" y="57.89" width="90.53" height="53.51" style="fill:#e8e8e8;stroke:#0377ae;stroke-miterlimit:10"/><polygon points="55.32 69.78 47.09 69.78 50.62 57.89 58.84 57.89 55.32 69.78" style="fill:#0377ae"/><polygon points="70.6 69.78 62.37 69.78 65.9 57.89 74.13 57.89 70.6 69.78" style="fill:#0377ae"/><polygon points="85.89 69.78 77.66 69.78 81.18 57.89 89.41 57.89 85.89 69.78" style="fill:#0377ae"/><polygon points="101.17 69.78 92.94 69.78 96.47 57.89 104.7 57.89 101.17 69.78" style="fill:#0377ae"/><polygon points="115.28 69.78 107.05 69.78 110.57 57.89 118.8 57.89 115.28 69.78" style="fill:#0377ae"/><polygon points="130.56 69.78 122.33 69.78 125.86 57.89 134.09 57.89 130.56 69.78" style="fill:#0377ae"/><line x1="58.84" y1="87.03" x2="58.84" y2="87.03" style="fill:none;stroke:#0377ae;stroke-miterlimit:10"/><line x1="54.73" y1="88.22" x2="124.09" y2="88.22" style="fill:none;stroke:#0377ae;stroke-miterlimit:10"/><line x1="54.73" y1="84.65" x2="124.09" y2="84.65" style="fill:none;stroke:#0377ae;stroke-miterlimit:10"/><line x1="54.73" y1="91.78" x2="124.09" y2="91.78" style="fill:none;stroke:#0377ae;stroke-miterlimit:10"/><line x1="54.73" y1="95.35" x2="124.09" y2="95.35" style="fill:none;stroke:#0377ae;stroke-miterlimit:10"/><line x1="50.61" y1="106.05" x2="128.21" y2="106.05" style="fill:none;stroke:#0377ae;stroke-miterlimit:10;stroke-width:2px"/><polygon points="120.93 48.81 118.47 44.82 114.26 42.8 118.21 40.31 120.2 36.05 122.67 40.05 126.88 42.06 122.93 44.56 120.93 48.81" style="fill:#fcfcfc"/><polygon points="127.62 49.57 126.8 48.29 125.45 47.61 126.67 46.88 127.26 45.56 128.08 46.84 129.43 47.52 128.21 48.26 127.62 49.57" style="fill:#fcfcfc"/><polygon points="127.62 37.68 127.21 36.95 126.45 36.62 127.21 36.11 127.62 35.3 128.03 36.02 128.79 36.35 128.03 36.86 127.62 37.68" style="fill:#fcfcfc"/><text transform="translate(25.47 140.06) scale(0.99 1)" style="font-size:27.351350784301758px;fill:#0377ae;font-family:BebasNeue-Regular, Bebas Neue">QUICKFLI<tspan x="73.05" y="0" style="letter-spacing:0.0049838182271992265em">X</tspan><tspan x="84.29" y="0" style="letter-spacing:-0.07298765679108432em">.</tspan><tspan x="87.44" y="0">TEAM</tspan></text><polygon points="130.25 30.88 43.85 58.2 40.34 46.85 126.74 19.53 130.25 30.88" style="fill:#e8e8e8;stroke:#0377ae;stroke-miterlimit:10"/><polygon points="55.07 54.65 47.22 57.14 47.08 44.72 54.93 42.24 55.07 54.65" style="fill:#0377ae"/><polygon points="69.66 50.04 61.8 52.52 61.66 40.11 69.52 37.63 69.66 50.04" style="fill:#0377ae"/><polygon points="84.25 45.43 76.39 47.91 76.25 35.5 84.1 33.01 84.25 45.43" style="fill:#0377ae"/><polygon points="98.83 40.81 90.98 43.3 90.84 30.88 98.69 28.4 98.83 40.81" style="fill:#0377ae"/><polygon points="112.3 36.55 104.44 39.04 104.3 26.63 112.16 24.14 112.3 36.55" style="fill:#0377ae"/><polygon points="126.89 31.94 119.03 34.43 118.89 22.01 126.74 19.53 126.89 31.94" style="fill:#0377ae"/></g></svg>